<svg width="25" height="25" viewBox="0 0 25 25" fill="none" xmlns="http://www.w3.org/2000/svg">
    <path
        d="M24.6984 0.829685C24.4265 0.553123 24.0578 0.378123 23.6984 0.262498C23.2746 0.136148 22.8381 0.0575356 22.3968 0.0281226C21.4281 -0.0484399 20.2187 0.0281226 18.8781 0.30156C16.1953 0.85156 12.9125 2.21094 9.86716 4.84375C6.82185 7.47656 4.91716 10.6625 3.99528 13.3172C3.53591 14.6406 3.30778 15.8703 3.32497 16.8609C3.33278 17.3547 3.4031 17.8297 3.5656 18.2359C3.59164 18.2995 3.62081 18.363 3.6531 18.4266C2.42403 20.1643 1.24746 21.9385 0.124972 23.7469C0.0119402 23.9296 -0.0256591 24.1491 0.0201138 24.359C0.0658867 24.5689 0.191449 24.7528 0.370284 24.8719C0.458576 24.9293 0.557489 24.9684 0.661169 24.9869C0.764849 25.0054 0.871189 25.003 0.973897 24.9797C1.07661 24.9564 1.17359 24.9127 1.25912 24.8512C1.34465 24.7898 1.41699 24.7118 1.47185 24.6219C2.54675 22.892 3.67118 21.1934 4.84372 19.5281C5.28903 19.7484 5.80622 19.8328 6.3406 19.8125C7.14216 19.7812 8.05622 19.5187 9.03278 19.0469C10.9859 18.1016 13.3203 16.2547 15.7562 13.3562L18.1281 10.9344C18.2784 10.7798 18.3625 10.5727 18.3625 10.357C18.3625 10.1414 18.2784 9.93427 18.1281 9.77968L16.989 8.61718L19.0375 8.94375C19.1632 8.96407 19.292 8.95333 19.4127 8.91248C19.5333 8.87163 19.6421 8.80191 19.7297 8.70937L20.7656 7.64062C21.8015 6.57812 22.7843 5.57031 23.5203 4.68437C24.0109 4.09375 24.4343 3.50937 24.6984 2.95469C24.9531 2.41562 25.1328 1.74687 24.8734 1.09844C24.8343 0.997714 24.7747 0.906203 24.6984 0.829685ZM5.83278 18.1562C8.41403 14.6469 11.3125 11.2734 14.5453 8.42812L16.4359 10.3562L14.6062 12.225L14.564 12.2719C12.2203 15.0672 10.0468 16.7516 8.34997 17.5734C7.49997 17.9844 6.8031 18.1641 6.28122 18.1828C6.13116 18.19 5.98076 18.1822 5.83278 18.1562ZM16.4093 6.875C18.4562 5.26875 20.6281 3.88437 22.9281 2.8125C22.7327 3.09455 22.5241 3.36724 22.3031 3.62969C21.6125 4.4625 20.6968 5.40156 19.6765 6.44843L18.8797 7.26719L16.4093 6.875ZM21.6375 1.62968C14.9906 4.91719 9.44528 10.625 4.92028 16.6844C4.93122 15.9594 5.10935 14.9875 5.49841 13.8625C6.33122 11.4641 8.07653 8.52656 10.8968 6.0875C13.7203 3.64844 16.75 2.4 19.1937 1.9C19.9974 1.72981 20.816 1.63926 21.6375 1.62968Z"
        fill="#FF5038" />
</svg>